<svg height='300px' width='300px' fill="#000000" xmlns="http://www.w3.org/2000/svg"
  xmlns:xlink="http://www.w3.org/1999/xlink" xml:space="preserve" version="1.1"
  style="shape-rendering:geometricPrecision;text-rendering:geometricPrecision;image-rendering:optimizeQuality;"
  viewBox="0 0 232 271" x="0px" y="0px" fill-rule="evenodd" clip-rule="evenodd">
  <path fill="#000000" d="M89 17c-9,-9 5,-23 14,-14l40 39c4,5 3,11 -1,15l-39 39c-9,9 -23,-5 -14,-14l22 -22c-51,2 -91,44 -91,95 0,53 43,96 96,96 53,0 96,-43 96,-96 0,-13 20,-13 20,0 0,64 -52,116 -116,116 -64,0 -116,-52 -116,-116 0,-62 49,-113 111,-115l-22 -23z"></path>
</svg>