<svg data-name="Layer 1" viewBox="0 0 80.541 78.614" x="0px" y="0px" xmlns="http://www.w3.org/2000/svg">
  <g data-name="Group" transform="matrix(1, 0, 0, 1, -10.090536, -10.909824)">
    <path data-name="Compound Path" d="M33.5,39a11,11,0,0,0-10.6,8H10.5v6H22.9a11,11,0,0,0,21.2,0H89.5V47H44.1A11,11,0,0,0,33.5,39Zm0,16a5,5,0,1,1,5-5A5,5,0,0,1,33.5,55Z"/>
    <path data-name="Compound Path" d="M66.5,11.5a11,11,0,0,0-10.6,8H10.5v6H55.9a11,11,0,0,0,21.2,0H89.5v-6H77.1A11,11,0,0,0,66.5,11.5Zm0,16a5,5,0,1,1,5-5A5,5,0,0,1,66.5,27.5Z"/>
    <path data-name="Compound Path" d="M66.5,66.5a11,11,0,0,0-10.6,8H10.5v6H55.9a11,11,0,0,0,21.2,0H89.5v-6H77.1A11,11,0,0,0,66.5,66.5Zm0,16a5,5,0,1,1,5-5A5,5,0,0,1,66.5,82.5Z"/>
  </g>
</svg>